<svg width="22" height="15" viewBox="0 0 22 15" fill="none" xmlns="http://www.w3.org/2000/svg">
<path d="M14.3498 14.9877H0L2.32092 7.8253H19.4658L19.4159 7.87521C19.6987 8.2246 19.8235 8.65717 19.7902 9.17293C19.7736 9.68869 19.6738 10.2128 19.4908 10.7452C19.341 11.211 19.1164 11.6935 18.817 12.1926C18.5341 12.6918 18.1764 13.1493 17.7438 13.5652C17.3279 13.9812 16.8288 14.3222 16.2465 14.5884C15.6808 14.8546 15.0486 14.9877 14.3498 14.9877ZM20.7136 6.45271C20.4308 6.95183 20.0731 7.36777 19.6405 7.70052H2.37084L2.77014 6.45271H20.7136ZM13.9755 4.68082C13.9422 4.68082 13.9089 4.68082 13.8756 4.68082C13.8424 4.66418 13.8008 4.65586 13.7509 4.65586H10.3319L10.3069 4.68082H3.34413L3.69351 3.65762H21.4873C21.4873 3.84063 21.4706 4.01532 21.4374 4.1817C21.4207 4.34807 21.4041 4.51444 21.3874 4.68082H13.9755ZM21.1129 2.26007C21.1795 2.39317 21.2377 2.54291 21.2876 2.70928C21.3542 2.85902 21.4041 3.01707 21.4374 3.18345H3.84325L4.14272 2.26007H21.1129ZM4.34237 1.66112L4.54202 0.987305H18.8669C19.2662 0.987305 19.6072 1.05385 19.8901 1.18695C20.1895 1.30342 20.4557 1.46147 20.6887 1.66112H4.34237ZM2.845 6.20315L3.21935 5.05516H10.1821L9.80778 6.20315H2.845ZM13.7009 6.20315C14.0004 6.1366 14.2084 5.90367 14.3248 5.50437C14.3748 5.37127 14.3914 5.22154 14.3748 5.05516H21.3126L21.2627 5.22985C21.1961 5.41287 21.1296 5.58756 21.063 5.75393C20.9965 5.92031 20.9216 6.07005 20.8384 6.20315H13.7009ZM12.1037 9.72197H8.68475L8.16067 11.3192H11.6046C11.9207 11.3192 12.1703 11.236 12.3533 11.0696C12.5363 10.9032 12.6694 10.7036 12.7526 10.4707C12.8358 10.2045 12.8358 10.0131 12.7526 9.89666C12.6694 9.7802 12.4531 9.72197 12.1037 9.72197Z" fill="white"/>
</svg>
