<svg width="17" height="15" viewBox="0 0 17 15" fill="none" xmlns="http://www.w3.org/2000/svg">
<path d="M2.48912 14.9877C2.05654 14.9877 1.69052 14.8962 1.39104 14.7132C1.09157 14.5302 0.866965 14.2806 0.717228 13.9645C0.584128 13.6318 0.517578 13.2574 0.517578 12.8415C0.517578 12.4089 0.600765 11.9431 0.76714 11.4439L1.94008 7.8253H8.92781L8.10426 10.3958C7.98779 10.7285 7.97947 10.9615 8.0793 11.0946C8.19576 11.211 8.42037 11.2859 8.75312 11.3192H16.8639L15.666 14.9877H2.48912ZM1.98999 7.70052L2.38929 6.45271H9.37702L8.97772 7.70052H1.98999ZM2.46416 6.20315L2.8385 5.05516H9.82623L9.45189 6.20315H2.46416ZM2.96328 4.68082L3.31267 3.65762H10.3004L9.95101 4.68082H2.96328ZM3.46241 3.18345L3.76188 2.26007H10.7496L10.4501 3.18345H3.46241ZM4.16118 0.987305H11.1489L10.9493 1.66112H3.96153L4.16118 0.987305Z" fill="white"/>
</svg>
